{"glyphs":{"0":{"ha":1111,"x_min":139,"x_max":972,"o":"m 879 957 q 972 694 972 843 q 972 417 972 694 q 850 122 972 244 q 556 0 728 0 q 261 122 383 0 q 139 417 139 244 l 139 694 q 261 989 139 867 q 556 1111 383 1111 q 736 1070 651 1111 q 879 957 821 1029 m 879 417 l 879 694 q 784 923 879 828 q 556 1018 689 1018 q 327 923 422 1018 q 232 694 232 828 l 232 417 q 327 188 232 283 q 556 93 422 93 q 784 188 689 93 q 879 417 879 283 z "},"1":{"ha":540,"x_min":139,"x_max":403,"o":"m 139 1111 l 403 1111 l 403 0 l 310 0 l 310 1018 l 139 1018 l 139 1111 z "},"2":{"ha":1111,"x_min":139,"x_max":972,"o":"m 440 508 q 294 448 356 508 q 232 301 232 388 l 232 93 l 972 93 l 972 0 l 139 0 l 139 301 q 228 515 139 428 q 440 603 317 603 l 671 603 q 817 663 756 603 q 879 810 879 724 q 817 958 879 899 q 671 1018 756 1018 l 139 1018 l 139 1111 l 671 1111 q 883 1025 793 1111 q 972 810 972 939 q 884 597 972 685 q 671 508 796 508 l 440 508 z "},"3":{"ha":1111,"x_min":139,"x_max":974,"o":"m 832 556 q 934 448 896 515 q 972 301 972 381 q 884 88 972 176 q 671 0 796 0 l 139 0 l 139 93 l 671 93 q 818 154 757 93 q 879 301 879 215 q 818 448 879 388 q 671 508 757 508 l 508 508 l 508 603 l 671 603 q 818 663 757 603 q 879 810 879 724 q 818 957 879 896 q 671 1018 757 1018 l 139 1018 l 139 1111 l 671 1111 q 884 1023 796 1111 q 972 810 972 935 q 935 663 972 731 q 832 556 897 596 z "},"4":{"ha":1111,"x_min":139,"x_max":972,"o":"m 879 1111 l 972 1111 l 972 0 l 879 0 l 879 508 l 440 508 q 227 597 315 508 q 139 810 139 685 l 139 1111 l 232 1111 l 232 810 q 293 663 232 724 q 440 603 354 603 l 879 603 l 879 1111 z "},"5":{"ha":1111,"x_min":139,"x_max":972,"o":"m 232 603 l 671 603 q 884 515 796 603 q 972 301 972 426 q 884 88 972 176 q 671 0 796 0 l 139 0 l 139 93 l 671 93 q 818 154 757 93 q 879 301 879 215 q 818 448 879 388 q 671 508 757 508 l 139 508 l 139 1111 l 972 1111 l 972 1018 l 232 1018 l 232 603 z "},"6":{"ha":1111,"x_min":139,"x_max":972,"o":"m 671 603 q 884 515 796 603 q 972 301 972 426 q 884 88 972 176 q 671 0 796 0 l 440 0 q 227 88 315 0 q 139 301 139 176 l 139 810 q 227 1023 139 935 q 440 1111 315 1111 l 556 1111 l 556 1018 l 440 1018 q 293 957 354 1018 q 232 810 232 896 l 232 603 l 671 603 m 671 93 q 818 154 757 93 q 879 301 879 215 q 818 448 879 388 q 671 508 757 508 l 232 508 l 232 301 q 293 154 232 215 q 440 93 354 93 l 671 93 z "},"7":{"ha":1111,"x_min":139,"x_max":972,"o":"m 139 1111 l 972 1111 l 972 1018 l 253 0 l 139 0 l 858 1018 l 139 1018 l 139 1111 z "},"8":{"ha":1111,"x_min":138,"x_max":974,"o":"m 832 556 q 934 448 896 515 q 972 301 972 381 q 884 88 972 176 q 671 0 796 0 l 440 0 q 227 88 315 0 q 139 301 139 176 q 177 448 139 381 q 279 556 215 515 q 177 663 215 596 q 139 810 139 731 q 227 1023 139 935 q 440 1111 315 1111 l 671 1111 q 884 1023 796 1111 q 972 810 972 935 q 935 663 972 731 q 832 556 897 596 m 293 957 q 263 926 293 957 q 232 810 232 896 q 293 663 232 724 q 439 603 354 603 l 672 603 q 819 663 758 603 q 879 810 879 724 q 818 957 879 896 q 671 1018 757 1018 l 440 1018 q 293 957 354 1018 m 671 93 q 818 154 757 93 q 879 301 879 215 q 819 448 879 388 q 672 508 758 508 l 439 508 q 293 448 354 508 q 232 301 232 388 q 293 154 232 215 q 440 93 354 93 l 671 93 z "},"9":{"ha":1111,"x_min":139,"x_max":972,"o":"m 440 508 q 227 597 315 508 q 139 810 139 685 q 227 1023 139 935 q 440 1111 315 1111 l 671 1111 q 884 1023 796 1111 q 972 810 972 935 l 972 301 q 884 88 972 176 q 671 0 796 0 l 556 0 l 556 93 l 671 93 q 818 154 757 93 q 879 301 879 215 l 879 508 l 440 508 m 440 1018 q 293 957 354 1018 q 232 810 232 896 q 293 663 232 724 q 440 603 354 603 l 879 603 l 879 810 q 818 957 879 896 q 671 1018 757 1018 l 440 1018 z "},"'":{"ha":371,"x_min":139,"x_max":233,"o":"m 139 925 l 139 1111 l 232 1111 l 232 925 l 139 925 z "}," ":{"ha":556,"x_min":0,"x_max":0,"o":""},"!":{"ha":417,"x_min":139,"x_max":279,"o":"m 256 279 l 163 279 l 163 1111 l 256 1111 l 256 279 m 159 120 q 169 130 159 120 q 208 140 179 140 q 258 120 238 140 q 278 71 278 100 q 258 21 278 42 q 208 0 238 0 q 159 21 179 0 q 139 71 139 42 q 159 120 139 100 z "},"\"":{"ha":557,"x_min":139,"x_max":419,"o":"m 325 1111 l 418 1111 l 418 925 l 325 925 l 325 1111 m 139 925 l 139 1111 l 232 1111 l 232 925 l 139 925 z "},"#":{"ha":1019,"x_min":139,"x_max":882,"o":"m 694 926 l 694 740 l 881 740 l 881 646 l 694 646 l 694 463 l 881 463 l 881 369 l 694 369 l 694 183 l 601 183 l 601 369 l 418 369 l 418 183 l 325 183 l 325 369 l 139 368 l 139 461 l 325 463 l 325 646 l 139 644 l 139 739 l 325 740 l 325 926 l 418 926 l 418 740 l 601 740 l 601 926 l 694 926 m 601 463 l 601 646 l 418 646 l 418 463 l 601 463 z "},"$":{"ha":1389,"x_min":139,"x_max":1250,"o":"m 742 1204 l 742 1111 l 1250 1111 l 1250 1018 l 742 1018 l 742 603 l 949 603 q 1162 515 1074 603 q 1250 301 1250 426 q 1162 88 1250 176 q 949 0 1074 0 l 742 0 l 742 -93 l 647 -93 l 647 0 l 139 0 l 139 93 l 647 93 l 647 508 l 440 508 q 227 597 315 508 q 139 810 139 685 q 227 1023 139 935 q 440 1111 315 1111 l 647 1111 l 647 1204 l 742 1204 m 647 603 l 647 1018 l 440 1018 q 293 957 354 1018 q 232 810 232 896 q 293 663 232 724 q 440 603 354 603 l 647 603 m 742 508 l 742 93 l 949 93 q 1096 154 1035 93 q 1157 301 1157 215 q 1096 448 1157 388 q 949 508 1035 508 l 742 508 z "},"&":{"ha":1111,"x_min":139,"x_max":974,"o":"m 293 957 q 263 926 293 957 q 232 810 232 896 q 293 663 232 724 q 440 603 354 603 l 972 603 l 972 508 l 879 508 l 879 93 l 972 93 l 972 0 l 440 0 q 227 88 315 0 q 139 301 139 176 q 177 448 139 381 q 279 556 215 515 q 177 663 215 596 q 139 810 139 731 q 227 1023 139 935 q 440 1111 315 1111 l 603 1111 l 603 1018 l 440 1018 q 293 957 354 1018 m 786 93 l 786 508 l 440 508 q 293 448 354 508 q 232 301 232 388 q 293 154 232 215 q 440 93 354 93 l 786 93 z "},"’":{"ha":371,"x_min":139,"x_max":233,"o":"m 139 925 l 139 1111 l 232 1111 l 232 925 l 139 925 z "},"(":{"ha":525,"x_min":138,"x_max":388,"o":"m 283 1204 l 386 1204 q 232 554 232 900 q 386 -93 232 211 l 283 -93 q 139 558 139 213 q 283 1204 139 897 z "},")":{"ha":525,"x_min":138,"x_max":388,"o":"m 139 1204 l 242 1204 q 386 554 386 897 q 242 -93 386 213 l 139 -93 q 293 557 293 211 q 139 1204 293 900 z "},"*":{"ha":644,"x_min":139,"x_max":507,"o":"m 369 740 l 276 740 l 276 844 l 186 793 l 139 874 l 229 925 l 139 978 l 186 1058 l 276 1007 l 276 1111 l 369 1111 l 369 1007 l 460 1058 l 507 978 l 417 925 l 507 874 l 460 793 l 369 844 l 369 740 z "},"+":{"ha":1019,"x_min":139,"x_max":882,"o":"m 557 926 l 557 603 l 881 603 l 881 508 l 557 508 l 557 185 l 464 185 l 464 508 l 139 508 l 139 603 l 464 603 l 464 926 l 557 926 z "},",":{"ha":371,"x_min":139,"x_max":233,"o":"m 139 -92 l 139 94 l 232 94 l 232 -92 l 139 -92 z "},"-":{"ha":649,"x_min":139,"x_max":511,"o":"m 139 508 l 139 603 l 510 603 l 510 508 l 139 508 z "},".":{"ha":417,"x_min":139,"x_max":279,"o":"m 159 20 q 149 30 159 20 q 139 69 139 40 q 159 119 139 99 q 208 139 179 139 q 258 119 238 139 q 278 69 278 99 q 258 20 278 40 q 208 0 238 0 q 159 20 179 0 z "},"/":{"ha":806,"x_min":139,"x_max":668,"o":"m 668 1111 l 239 0 l 139 0 l 568 1111 l 668 1111 z "},":":{"ha":417,"x_min":139,"x_max":279,"o":"m 258 423 q 268 413 258 423 q 278 374 278 403 q 258 324 278 344 q 208 304 238 304 q 159 324 179 304 q 139 374 139 344 q 159 423 139 403 q 208 443 179 443 q 258 423 238 443 m 159 119 q 169 129 159 119 q 208 139 179 139 q 258 119 238 139 q 278 69 278 99 q 258 20 278 40 q 208 0 238 0 q 159 20 179 0 q 139 69 139 40 q 159 119 139 99 z "},";":{"ha":417,"x_min":139,"x_max":279,"o":"m 163 94 l 256 94 l 256 -92 l 163 -92 l 163 94 m 159 425 q 169 435 159 425 q 208 446 179 446 q 258 425 238 446 q 278 376 278 404 q 258 326 278 347 q 208 306 238 306 q 159 326 179 306 q 139 376 139 347 q 159 425 139 404 z "},"<":{"ha":1139,"x_min":139,"x_max":1001,"o":"m 799 742 l 1001 742 l 340 371 l 1001 0 l 799 0 l 139 371 l 799 742 z "},"=":{"ha":1019,"x_min":139,"x_max":882,"o":"m 139 464 l 881 464 l 881 371 l 139 371 l 139 464 m 139 647 l 139 740 l 881 740 l 881 647 l 139 647 z "},">":{"ha":1139,"x_min":139,"x_max":1001,"o":"m 139 742 l 340 742 l 1001 371 l 340 0 l 139 0 l 799 371 l 139 742 z "},"?":{"ha":949,"x_min":139,"x_max":811,"o":"m 723 1023 q 767 979 723 1023 q 811 810 811 935 q 723 597 811 685 q 510 508 635 508 l 256 508 l 256 279 l 163 279 l 163 603 l 510 603 q 657 663 596 603 q 718 810 718 724 q 657 957 718 896 q 510 1018 596 1018 l 163 1018 l 163 1111 l 510 1111 q 723 1023 635 1111 m 159 119 q 169 129 159 119 q 208 139 179 139 q 258 119 238 139 q 278 69 278 99 q 258 20 278 40 q 208 0 238 0 q 159 20 179 0 q 139 69 139 40 q 159 119 139 99 z "},"@":{"ha":1389,"x_min":139,"x_max":1250,"o":"m 301 163 q 220 244 301 163 q 139 556 139 325 q 301 949 139 786 q 694 1111 464 1111 l 1250 1111 l 1250 279 l 694 279 q 499 360 581 279 q 418 556 418 442 q 499 751 418 669 q 694 832 581 832 l 971 832 l 971 374 l 1157 374 l 1157 1018 l 694 1018 q 463 956 569 1018 q 294 788 356 894 q 232 556 232 681 q 294 324 232 431 q 463 155 356 217 q 694 93 569 93 l 1250 93 l 1250 0 l 694 0 q 301 163 464 0 m 876 374 l 876 738 l 694 738 q 566 684 619 738 q 513 556 513 631 q 566 427 513 481 q 694 374 619 374 l 876 374 z "},"A":{"ha":1526,"x_min":139,"x_max":1388,"o":"m 139 0 l 764 1111 l 1388 0 l 1274 0 l 764 910 l 253 0 l 139 0 z "},"B":{"ha":1389,"x_min":139,"x_max":1250,"o":"m 1110 556 q 1212 448 1174 515 q 1250 301 1250 381 q 1162 88 1250 176 q 949 0 1074 0 l 139 0 l 139 93 l 949 93 q 1096 154 1035 93 q 1157 301 1157 215 q 1096 448 1157 388 q 949 508 1035 508 l 139 508 l 139 603 q 251 603 183 603 q 476 603 318 603 q 739 603 633 603 q 949 603 949 603 q 1096 663 1035 603 q 1157 810 1157 724 q 1096 957 1157 896 q 949 1018 1035 1018 l 139 1018 l 139 1111 l 949 1111 q 1162 1023 1074 1111 q 1250 810 1250 935 q 1212 663 1250 731 q 1110 556 1174 596 z "},"C":{"ha":1389,"x_min":139,"x_max":1250,"o":"m 301 163 q 220 244 301 163 q 139 556 139 325 q 301 949 139 786 q 694 1111 464 1111 l 1250 1111 l 1250 1018 l 694 1018 q 463 956 569 1018 q 294 788 356 894 q 232 556 232 681 q 294 324 232 431 q 463 155 356 217 q 694 93 569 93 l 1250 93 l 1250 0 l 694 0 q 301 163 464 0 z "},"D":{"ha":1389,"x_min":139,"x_max":1250,"o":"m 694 1111 q 1088 949 925 1111 q 1250 556 1250 786 q 1088 163 1250 325 q 694 0 925 0 l 139 0 l 139 93 l 694 93 q 926 155 819 93 q 1095 324 1033 217 q 1157 556 1157 431 q 1095 788 1157 681 q 926 956 1033 894 q 694 1018 819 1018 l 139 1018 l 139 1111 l 694 1111 z "},"E":{"ha":1389,"x_min":139,"x_max":1250,"o":"m 694 1111 l 1250 1111 l 1250 1018 l 694 1018 q 463 956 569 1018 q 294 788 356 894 q 232 556 232 681 q 294 324 232 431 q 463 155 356 217 q 694 93 569 93 l 1250 93 l 1250 0 l 694 0 q 301 163 464 0 q 139 556 139 325 q 301 949 139 786 q 694 1111 464 1111 m 781 506 q 771 516 781 506 q 761 556 761 526 q 781 605 761 585 q 831 625 801 625 q 880 605 860 625 q 900 556 900 585 q 880 506 900 526 q 831 486 860 486 q 781 506 801 486 z "},"F":{"ha":1389,"x_min":139,"x_max":1250,"o":"m 139 603 l 949 603 l 949 508 l 232 508 l 232 0 l 139 0 l 139 603 m 1250 1018 l 139 1018 l 139 1111 l 1250 1111 l 1250 1018 z "},"G":{"ha":1389,"x_min":139,"x_max":1250,"o":"m 301 163 q 220 244 301 163 q 139 556 139 325 q 301 949 139 786 q 694 1111 464 1111 l 1250 1111 l 1250 1018 l 694 1018 q 463 956 569 1018 q 294 788 356 894 q 232 556 232 681 q 294 324 232 431 q 463 155 356 217 q 694 93 569 93 l 1157 93 l 1157 508 l 851 508 l 851 603 l 1250 603 l 1250 0 l 694 0 q 301 163 464 0 z "},"H":{"ha":1389,"x_min":139,"x_max":1250,"o":"m 1157 603 l 1157 1111 l 1250 1111 l 1250 0 l 1157 0 l 1157 508 l 232 508 l 232 0 l 139 0 l 139 1111 l 232 1111 l 232 603 l 1157 603 z "},"I":{"ha":371,"x_min":138,"x_max":233,"o":"m 139 0 l 139 1111 l 232 1111 l 232 0 l 139 0 z "},"J":{"ha":1389,"x_min":139,"x_max":1250,"o":"m 1157 1111 l 1250 1111 l 1250 556 q 1088 163 1250 325 q 694 0 925 0 q 301 163 464 0 q 139 556 139 325 l 232 556 q 294 324 232 431 q 463 155 356 217 q 694 93 569 93 q 926 155 819 93 q 1095 324 1033 217 q 1157 556 1157 431 l 1157 1018 l 1064 1018 l 1064 1111 l 1157 1111 z "},"K":{"ha":1389,"x_min":139,"x_max":1251,"o":"m 1106 1111 l 1250 1111 l 590 556 l 1250 0 l 1106 0 l 518 494 l 232 254 l 232 0 l 139 0 l 139 176 l 139 299 l 139 1111 l 232 1111 l 232 376 l 1106 1111 z "},"L":{"ha":1389,"x_min":139,"x_max":1250,"o":"m 949 93 l 1167 93 l 1250 93 l 1250 0 l 949 0 l 139 0 l 139 72 l 139 93 l 139 1111 l 232 1111 l 232 93 l 949 93 z "},"M":{"ha":1575,"x_min":139,"x_max":1438,"o":"m 1089 1111 q 1335 1009 1233 1111 q 1436 764 1436 907 l 1436 0 l 1343 0 l 1343 764 q 1269 943 1343 868 q 1089 1018 1194 1018 q 909 943 983 1018 q 835 764 835 868 l 835 0 l 742 0 l 742 764 q 667 943 742 868 q 487 1018 592 1018 q 307 943 382 1018 q 232 764 232 868 l 232 0 l 139 0 l 139 764 q 241 1009 139 907 q 486 1111 343 1111 q 662 1064 582 1111 q 788 936 742 1017 q 914 1064 833 1017 q 1089 1111 994 1111 z "},"N":{"ha":1389,"x_min":139,"x_max":1250,"o":"m 301 949 q 383 1030 301 949 q 694 1111 464 1111 q 1088 949 925 1111 q 1250 556 1250 786 l 1250 0 l 1157 0 l 1157 556 q 1095 788 1157 681 q 926 956 1033 894 q 694 1018 819 1018 q 463 956 569 1018 q 294 788 356 894 q 232 556 232 681 l 232 0 l 139 0 l 139 556 q 301 949 139 786 z "},"O":{"ha":1389,"x_min":139,"x_max":1250,"o":"m 301 949 q 383 1030 301 949 q 694 1111 464 1111 q 1088 949 925 1111 q 1250 556 1250 786 q 1088 163 1250 325 q 694 0 925 0 q 301 163 464 0 q 139 556 139 325 q 301 949 139 786 m 463 155 q 516 124 463 155 q 694 93 569 93 q 926 155 819 93 q 1095 324 1033 217 q 1157 556 1157 431 q 1095 788 1157 681 q 926 956 1033 894 q 694 1018 819 1018 q 463 956 569 1018 q 294 788 356 894 q 232 556 232 681 q 294 324 232 431 q 463 155 356 217 z "},"P":{"ha":1389,"x_min":139,"x_max":1250,"o":"m 949 1111 q 1162 1023 1074 1111 q 1250 810 1250 935 q 1162 597 1250 685 q 949 508 1074 508 l 232 508 l 232 0 l 139 0 l 139 603 l 949 603 q 1096 663 1035 603 q 1157 810 1157 724 q 1096 957 1157 896 q 949 1018 1035 1018 l 139 1018 l 139 1111 l 949 1111 z "},"Q":{"ha":1389,"x_min":139,"x_max":1251,"o":"m 301 949 q 383 1030 301 949 q 694 1111 464 1111 q 1088 949 925 1111 q 1250 556 1250 786 q 1250 554 1250 556 q 1207 340 1250 442 q 1088 163 1164 239 l 1250 0 l 1118 0 l 1015 103 q 694 0 872 0 q 301 163 464 0 q 139 556 139 325 q 301 949 139 786 m 1021 229 q 1121 377 1085 293 q 1157 556 1157 461 q 1095 788 1157 681 q 926 956 1033 894 q 694 1018 819 1018 q 463 956 569 1018 q 294 788 356 894 q 232 556 232 681 q 294 324 232 431 q 463 155 356 217 q 694 93 569 93 q 696 93 696 93 q 949 169 833 93 l 793 325 l 858 392 l 1021 229 z "},"R":{"ha":1389,"x_min":139,"x_max":1250,"o":"m 1250 810 q 1212 663 1250 731 q 1110 556 1174 596 q 1212 448 1174 515 q 1250 301 1250 381 l 1250 0 l 1157 0 l 1157 301 q 1096 448 1157 388 q 949 508 1035 508 l 232 508 l 232 0 l 139 0 l 139 603 l 949 603 q 1096 663 1035 603 q 1157 810 1157 724 q 1096 957 1157 896 q 949 1018 1035 1018 l 139 1018 l 139 1111 l 949 1111 q 1162 1023 1074 1111 q 1250 810 1250 935 z "},"S":{"ha":1389,"x_min":139,"x_max":1250,"o":"m 440 1111 l 1250 1111 l 1250 1018 l 440 1018 q 293 957 354 1018 q 232 810 232 896 q 293 663 232 724 q 440 603 354 603 l 949 603 q 1162 515 1074 603 q 1250 301 1250 426 q 1162 88 1250 176 q 949 0 1074 0 l 139 0 l 139 93 l 949 93 q 1096 154 1035 93 q 1157 301 1157 215 q 1096 448 1157 388 q 949 508 1035 508 l 440 508 q 227 597 315 508 q 139 810 139 685 q 227 1023 139 935 q 440 1111 315 1111 z "},"T":{"ha":1389,"x_min":139,"x_max":1250,"o":"m 139 1018 l 139 1111 l 1250 1111 l 1250 1018 l 742 1018 l 742 0 l 647 0 l 647 1018 l 139 1018 z "},"U":{"ha":1389,"x_min":139,"x_max":1250,"o":"m 1157 556 l 1157 1111 l 1250 1111 l 1250 556 q 1088 163 1250 325 q 694 0 925 0 q 301 163 464 0 q 139 556 139 325 l 139 1111 l 232 1111 l 232 556 q 294 324 232 431 q 463 155 356 217 q 694 93 569 93 q 926 155 819 93 q 1095 324 1033 217 q 1157 556 1157 431 z "},"V":{"ha":1526,"x_min":139,"x_max":1389,"o":"m 764 201 l 1275 1111 l 1388 1111 l 764 0 l 139 1111 l 253 1111 l 764 201 z "},"W":{"ha":1575,"x_min":139,"x_max":1438,"o":"m 1343 347 l 1343 1111 l 1436 1111 l 1436 347 q 1335 102 1436 204 q 1089 0 1233 0 q 914 47 994 0 q 788 175 833 94 q 662 47 742 94 q 486 0 582 0 q 241 102 343 0 q 139 347 139 204 l 139 1111 l 232 1111 l 232 347 q 307 168 232 243 q 487 93 382 93 q 667 168 592 93 q 742 347 742 243 l 742 1111 l 835 1111 l 835 347 q 909 168 835 243 q 1089 93 983 93 q 1269 167 1194 93 q 1343 347 1343 242 z "},"X":{"ha":1389,"x_min":139,"x_max":1250,"o":"m 1118 1111 l 1250 1111 l 760 556 l 1250 0 l 1118 0 l 694 481 l 271 0 l 139 0 l 629 556 l 139 1111 l 271 1111 l 694 631 l 1118 1111 z "},"Y":{"ha":1389,"x_min":139,"x_max":1250,"o":"m 1157 1064 l 1157 1111 l 1250 1111 l 1250 1064 q 1183 798 1250 921 q 999 599 1115 675 q 742 511 882 522 l 742 0 l 647 0 l 647 511 q 390 599 507 522 q 206 798 274 675 q 139 1064 139 921 l 139 1111 l 232 1111 l 232 1064 q 294 833 232 939 q 463 665 356 726 q 694 603 569 603 q 926 665 819 603 q 1095 833 1033 726 q 1157 1064 1157 939 z "},"Z":{"ha":1389,"x_min":139,"x_max":1250,"o":"m 1250 1111 l 346 93 l 1250 93 l 1250 0 l 139 0 l 1043 1018 l 139 1018 l 139 1111 l 1250 1111 z "},"[":{"ha":464,"x_min":139,"x_max":326,"o":"m 139 1204 l 232 1204 l 325 1204 l 325 1111 l 232 1111 l 232 0 l 325 0 l 325 -93 l 232 -93 l 139 -93 l 139 1204 z "},"\\":{"ha":806,"x_min":139,"x_max":668,"o":"m 139 1111 l 239 1111 l 668 0 l 568 0 l 139 1111 z "},"]":{"ha":464,"x_min":139,"x_max":326,"o":"m 139 1204 l 232 1204 l 325 1204 l 325 -93 l 232 -93 l 139 -93 l 139 0 l 232 0 l 232 1111 l 139 1111 l 139 1204 z "},"^":{"ha":1003,"x_min":139,"x_max":865,"o":"m 551 1111 l 865 740 l 743 740 l 501 1025 l 261 740 l 139 740 l 453 1111 l 551 1111 z "},"_":{"ha":1019,"x_min":139,"x_max":882,"o":"m 139 -93 l 139 0 l 881 0 l 881 -93 l 139 -93 z "},"a":{"ha":1526,"x_min":138,"x_max":1389,"o":"m 139 0 l 764 1111 l 1388 0 l 1274 0 l 764 910 l 253 0 l 139 0 z "},"b":{"ha":1389,"x_min":139,"x_max":1250,"o":"m 1250 810 q 1212 663 1250 731 q 1110 556 1174 596 q 1212 448 1174 515 q 1250 301 1250 381 q 1162 88 1250 176 q 949 0 1074 0 l 139 0 l 139 603 l 949 603 q 1096 663 1035 603 q 1157 810 1157 724 q 1096 957 1157 896 q 949 1018 1035 1018 l 139 1018 l 139 1111 l 949 1111 q 1162 1023 1074 1111 q 1250 810 1250 935 m 1096 154 q 1126 185 1096 154 q 1157 301 1157 215 q 1096 448 1157 388 q 949 508 1035 508 l 232 508 l 232 93 l 949 93 q 1096 154 1035 93 z "},"c":{"ha":1389,"x_min":139,"x_max":1250,"o":"m 301 163 q 220 244 301 163 q 139 556 139 325 q 301 949 139 786 q 694 1111 464 1111 l 1250 1111 l 1250 1018 l 694 1018 q 463 956 569 1018 q 294 788 356 894 q 232 556 232 681 q 294 324 232 431 q 463 155 356 217 q 694 93 569 93 l 1250 93 l 1250 0 l 694 0 q 301 163 464 0 z "},"d":{"ha":1389,"x_min":139,"x_max":1250,"o":"m 694 1111 q 1088 949 925 1111 q 1250 556 1250 786 q 1088 163 1250 325 q 694 0 925 0 l 139 0 l 139 603 l 232 603 l 232 93 l 694 93 q 926 155 819 93 q 1095 324 1033 217 q 1157 556 1157 431 q 1095 788 1157 681 q 926 956 1033 894 q 694 1018 819 1018 l 139 1018 l 139 1111 l 694 1111 z "},"e":{"ha":1389,"x_min":139,"x_max":1250,"o":"m 301 163 q 220 244 301 163 q 139 556 139 325 q 301 949 139 786 q 694 1111 464 1111 l 1250 1111 l 1250 1018 l 694 1018 q 384 898 515 1018 q 235 603 253 778 l 1250 603 l 1250 508 l 235 508 q 384 213 253 333 q 694 93 515 93 l 1250 93 l 1250 0 l 694 0 q 301 163 464 0 z "},"f":{"ha":1389,"x_min":139,"x_max":1250,"o":"m 949 1111 l 1250 1111 l 1250 1018 l 1167 1018 l 949 1018 l 232 1018 l 232 603 l 949 603 l 949 508 l 232 508 l 232 0 l 139 0 l 139 1018 l 139 1039 l 139 1111 l 949 1111 z "},"g":{"ha":1389,"x_min":139,"x_max":1250,"o":"m 301 163 q 220 244 301 163 q 139 556 139 325 q 301 949 139 786 q 694 1111 464 1111 l 1250 1111 l 1250 1018 l 694 1018 q 463 956 569 1018 q 294 788 356 894 q 232 556 232 681 q 294 324 232 431 q 463 155 356 217 q 694 93 569 93 l 1157 93 l 1157 508 l 851 508 l 851 603 l 1250 603 l 1250 0 l 694 0 q 301 163 464 0 z "},"h":{"ha":1389,"x_min":139,"x_max":1250,"o":"m 1157 603 l 1157 1111 l 1250 1111 l 1250 0 l 1157 0 l 1157 508 l 232 508 l 232 0 l 139 0 l 139 1111 l 232 1111 l 232 603 l 1157 603 z "},"i":{"ha":557,"x_min":138,"x_max":419,"o":"m 418 1018 l 325 1018 l 325 93 l 418 93 l 418 0 l 139 0 l 139 93 l 232 93 l 232 1018 l 139 1018 l 139 1111 l 418 1111 l 418 1018 z "},"j":{"ha":1389,"x_min":139,"x_max":1250,"o":"m 1157 1111 l 1250 1111 l 1250 556 q 1088 163 1250 325 q 694 0 925 0 q 301 163 464 0 q 139 556 139 325 l 232 556 q 294 324 232 431 q 463 155 356 217 q 694 93 569 93 q 926 155 819 93 q 1095 324 1033 217 q 1157 556 1157 431 l 1157 1018 l 1064 1018 l 1064 1111 l 1157 1111 z "},"k":{"ha":1389,"x_min":138,"x_max":1251,"o":"m 1106 1111 l 1250 1111 l 590 556 l 1250 0 l 1106 0 l 517 494 l 232 254 l 232 0 l 139 0 l 139 176 l 139 299 l 139 1111 l 232 1111 l 232 376 l 1106 1111 z "},"l":{"ha":1389,"x_min":139,"x_max":1250,"o":"m 949 93 l 1167 93 l 1250 93 l 1250 0 l 949 0 l 139 0 l 139 72 l 139 93 l 139 1111 l 232 1111 l 232 93 l 949 93 z "},"m":{"ha":1575,"x_min":138,"x_max":1438,"o":"m 1089 1111 q 1334 1009 1232 1111 q 1436 764 1436 907 l 1436 0 l 1343 0 l 1343 764 q 1269 943 1343 868 q 1089 1018 1194 1018 q 909 943 983 1018 q 835 764 835 868 l 835 0 l 740 0 l 740 764 q 666 943 740 868 q 486 1018 592 1018 q 306 943 381 1018 q 232 764 232 868 l 232 0 l 139 0 l 139 764 q 241 1009 139 907 q 486 1111 343 1111 q 662 1064 582 1111 q 788 936 742 1017 q 913 1064 833 1017 q 1089 1111 993 1111 z "},"n":{"ha":1389,"x_min":139,"x_max":1250,"o":"m 301 949 q 383 1030 301 949 q 694 1111 464 1111 q 1088 949 925 1111 q 1250 556 1250 786 l 1250 0 l 1157 0 l 1157 556 q 1095 788 1157 681 q 926 956 1033 894 q 694 1018 819 1018 q 463 956 569 1018 q 294 788 356 894 q 232 556 232 681 l 232 0 l 139 0 l 139 556 q 301 949 139 786 z "},"o":{"ha":1389,"x_min":139,"x_max":1250,"o":"m 301 949 q 383 1030 301 949 q 694 1111 464 1111 q 1088 949 925 1111 q 1250 556 1250 786 q 1088 163 1250 325 q 694 0 925 0 q 301 163 464 0 q 139 556 139 325 q 301 949 139 786 m 463 155 q 516 124 463 155 q 694 93 569 93 q 926 155 819 93 q 1095 324 1033 217 q 1157 556 1157 431 q 1095 788 1157 681 q 926 956 1033 894 q 694 1018 819 1018 q 463 956 569 1018 q 294 788 356 894 q 232 556 232 681 q 294 324 232 431 q 463 155 356 217 m 744 605 q 754 595 744 605 q 764 556 764 585 q 744 506 764 526 q 694 486 724 486 q 645 506 665 486 q 625 556 625 526 q 645 605 625 585 q 694 625 665 625 q 744 605 724 625 z "},"p":{"ha":1389,"x_min":139,"x_max":1250,"o":"m 949 1111 q 1162 1023 1074 1111 q 1250 810 1250 935 q 1162 597 1250 685 q 949 508 1074 508 l 232 508 l 232 0 l 139 0 l 139 1111 l 949 1111 m 232 1018 l 232 603 l 949 603 q 1030 629 982 603 q 1117 706 1078 656 q 1157 810 1157 757 q 1096 957 1157 896 q 949 1018 1035 1018 l 232 1018 z "},"q":{"ha":1389,"x_min":138,"x_max":1251,"o":"m 415 1037 q 479 1074 415 1037 q 694 1111 543 1111 q 974 1037 846 1111 q 1176 835 1101 963 q 1250 556 1250 707 q 1250 554 1250 556 q 1207 340 1250 442 q 1088 163 1164 239 l 1250 0 l 1118 0 l 1015 103 q 694 0 872 0 q 415 74 543 0 q 213 276 288 149 q 139 556 139 404 q 213 835 139 707 q 415 1037 288 963 m 1021 229 q 1121 377 1085 293 q 1157 556 1157 461 q 1095 788 1157 681 q 926 956 1033 894 q 694 1018 819 1018 q 463 956 569 1018 q 294 788 356 894 q 232 556 232 681 q 294 324 232 431 q 463 155 356 217 q 694 93 569 93 q 696 93 696 93 q 949 169 833 93 l 793 325 l 858 392 l 1021 229 z "},"r":{"ha":1389,"x_min":139,"x_max":1250,"o":"m 1250 810 q 1212 663 1250 731 q 1110 556 1174 596 q 1212 448 1174 515 q 1250 301 1250 381 l 1250 0 l 1157 0 l 1157 301 q 1096 448 1157 388 q 949 508 1035 508 l 232 508 l 232 0 l 139 0 l 139 1111 l 949 1111 q 1162 1023 1074 1111 q 1250 810 1250 935 m 232 1018 l 232 603 l 949 603 q 1096 663 1035 603 q 1157 810 1157 724 q 1096 957 1157 896 q 949 1018 1035 1018 l 232 1018 z "},"s":{"ha":1389,"x_min":139,"x_max":1250,"o":"m 440 1111 l 1250 1111 l 1250 1018 l 440 1018 q 293 957 354 1018 q 232 810 232 896 q 293 663 232 724 q 440 603 354 603 l 949 603 q 1162 515 1074 603 q 1250 301 1250 426 q 1162 88 1250 176 q 949 0 1074 0 l 139 0 l 139 93 l 949 93 q 1096 154 1035 93 q 1157 301 1157 215 q 1096 448 1157 388 q 949 508 1035 508 l 440 508 q 227 597 315 508 q 139 810 139 685 q 227 1023 139 935 q 440 1111 315 1111 z "},"t":{"ha":1389,"x_min":139,"x_max":1250,"o":"m 139 1018 l 139 1111 l 1250 1111 l 1250 1018 l 742 1018 l 742 0 l 647 0 l 647 1018 l 139 1018 z "},"u":{"ha":1389,"x_min":139,"x_max":1250,"o":"m 1157 556 l 1157 1111 l 1250 1111 l 1250 556 q 1088 163 1250 325 q 694 0 925 0 q 301 163 464 0 q 139 556 139 325 l 139 1111 l 232 1111 l 232 556 q 294 324 232 431 q 463 155 356 217 q 694 93 569 93 q 926 155 819 93 q 1095 324 1033 217 q 1157 556 1157 431 z "},"v":{"ha":1526,"x_min":138,"x_max":1389,"o":"m 764 201 l 1274 1111 l 1388 1111 l 764 0 l 139 1111 l 253 1111 l 764 201 z "},"w":{"ha":1575,"x_min":138,"x_max":1438,"o":"m 1343 347 l 1343 1111 l 1436 1111 l 1436 347 q 1334 102 1436 204 q 1089 0 1232 0 q 913 47 993 0 q 788 175 833 94 q 662 47 742 94 q 486 0 582 0 q 241 102 343 0 q 139 347 139 204 l 139 1111 l 232 1111 l 232 347 q 306 167 232 242 q 486 93 381 93 q 666 168 592 93 q 740 347 740 243 l 740 1111 l 835 1111 l 835 347 q 909 168 835 243 q 1089 93 983 93 q 1269 168 1194 93 q 1343 347 1343 243 z "},"x":{"ha":1389,"x_min":139,"x_max":1250,"o":"m 1118 1111 l 1250 1111 l 760 556 l 1250 0 l 1118 0 l 694 481 l 271 0 l 139 0 l 629 556 l 139 1111 l 271 1111 l 694 631 l 1118 1111 z "},"y":{"ha":1389,"x_min":139,"x_max":1250,"o":"m 1157 1064 l 1157 1111 l 1250 1111 l 1250 1064 q 1183 798 1250 921 q 999 599 1115 675 q 742 511 882 522 l 742 0 l 647 0 l 647 511 q 390 599 507 522 q 206 798 274 675 q 139 1064 139 921 l 139 1111 l 232 1111 l 232 1064 q 294 833 232 939 q 463 665 356 726 q 694 603 569 603 q 926 665 819 603 q 1095 833 1033 726 q 1157 1064 1157 939 z "},"z":{"ha":1389,"x_min":139,"x_max":1250,"o":"m 1250 1111 l 346 93 l 1250 93 l 1250 0 l 139 0 l 1043 1018 l 139 1018 l 139 1111 l 1250 1111 z "},"{":{"ha":510,"x_min":139,"x_max":372,"o":"m 186 1111 q 213 1177 186 1150 q 279 1204 240 1204 l 372 1204 l 372 1111 l 331 1111 q 294 1096 308 1111 q 279 1060 279 1081 l 279 607 q 264 571 279 586 q 228 556 249 556 q 264 540 249 556 q 279 504 279 525 l 279 51 q 294 15 279 31 q 331 0 308 0 l 372 0 l 372 -93 l 279 -93 q 213 -66 240 -93 q 186 0 186 -39 l 186 508 l 139 508 l 139 601 l 186 601 l 186 1111 z "},"|":{"ha":371,"x_min":138,"x_max":233,"o":"m 139 0 l 139 1111 l 232 1111 l 232 0 l 139 0 z "},"}":{"ha":510,"x_min":139,"x_max":372,"o":"m 325 601 l 372 601 l 372 508 l 325 508 l 325 0 q 298 -66 325 -39 q 232 -93 271 -93 l 139 -93 l 139 0 l 181 0 q 217 15 201 0 q 232 51 232 31 l 232 504 q 247 540 232 525 q 283 556 263 556 q 247 571 263 556 q 232 607 232 586 l 232 1060 q 217 1096 232 1081 q 181 1111 201 1111 l 139 1111 l 139 1204 l 232 1204 q 298 1177 271 1204 q 325 1111 325 1150 l 325 601 z "},"€":{"ha":1482,"x_min":139,"x_max":1344,"o":"m 347 415 q 510 186 390 279 q 788 93 631 93 l 1343 93 l 1343 0 l 788 0 q 447 117 596 0 q 250 415 297 235 l 139 415 l 139 508 l 235 508 q 232 556 232 532 q 235 603 232 579 l 139 603 l 139 696 l 250 696 q 443 990 294 869 q 788 1111 592 1111 l 1343 1111 l 1343 1018 l 788 1018 q 510 925 631 1018 q 347 696 390 832 l 881 696 l 881 603 l 328 603 q 325 556 325 579 q 328 508 325 532 l 881 508 l 881 415 l 347 415 z "},"¢":{"ha":1389,"x_min":139,"x_max":1250,"o":"m 788 1204 l 788 1111 l 1250 1111 l 1250 1018 l 788 1018 l 788 93 l 1250 93 l 1250 0 q 1228 0 1239 0 l 788 0 l 788 -93 l 694 -93 l 694 0 q 415 74 543 0 q 213 276 288 149 q 139 556 139 404 q 213 835 139 707 q 415 1037 288 963 q 694 1111 543 1111 l 694 1204 l 788 1204 m 694 1018 q 463 956 569 1018 q 294 788 356 894 q 232 556 232 681 q 294 324 232 431 q 463 155 356 217 q 694 93 569 93 l 694 1018 z "},"£":{"ha":1121,"x_min":139,"x_max":983,"o":"m 325 508 l 325 93 l 982 93 l 982 0 l 139 0 l 139 93 l 232 93 l 232 508 l 139 508 l 139 603 l 232 603 l 232 810 q 320 1023 232 935 q 533 1111 408 1111 l 742 1111 l 742 1018 l 533 1018 q 386 957 447 1018 q 325 810 325 896 l 325 603 l 649 603 l 649 508 l 325 508 z "},"¥":{"ha":1389,"x_min":139,"x_max":1250,"o":"m 1250 1111 l 782 585 l 1065 585 l 1065 492 l 742 492 l 742 399 l 1065 399 l 1065 304 l 742 304 l 742 0 l 647 0 l 647 304 l 324 304 l 324 399 l 647 399 l 647 492 l 324 492 l 324 585 l 607 585 l 139 1111 l 264 1111 l 647 678 l 694 626 l 742 678 l 1125 1111 l 1250 1111 z "}}}
